:SAMPLES-PER-SECOND 30
:FULLY-SPECIFIED
:DEGREES
438
root  -11.2955 34.7008 1.45769 -172.151 -40.7229 174.561
RightUpLeg  0.882495 -30.9863 -6.74411
RightLeg  11.058 -19.3575 -2.44739
RightFoot  -0.241793 -0.00136554 0.340367
RightToes  -23.7106 -0.108697 -0.208071
Spine  -3.28195 4.51727 -1.60206
Spine1  -6.5938 8.86542 -2.66138
HEad  -66.568 15.9527 22.8739
LeftShoulder1  -1.94126e-019 -3.10601e-018 -2.51263e-017
LeftArm  -4.24793 25.8815 -75.6463
LeftForeArm  28.3092 -28.5171 -4.93109
LeftHand  -0.300392 0.86472 7.67765
RightShoulder  -4.96962e-017 0 -2.36833e-017
RightArm  -45.9466 49.4007 36.1767
RightForeArm  102.953 80.7205 65.7276
RightHand  -0.411565 -3.84244 -30.3222
LeftUpLeg  -8.87078 -20.824 -1.27997
LeftLeg  4.21134 -5.13422 -0.0479867
LeftFoot  11.0371 0.097038 -0.842848
LeftToes  -35.5814 2.14545e-006 -7.7278e-009
439
root  -11.3038 34.686 1.43516 -171.758 -42.2137 174.099
RightUpLeg  0.978773 -31.3726 -6.93048
RightLeg  11.4777 -20.3682 -2.71771
RightFoot  -0.515635 -0.00164792 0.451645
RightToes  -23.5268 -0.108644 -0.207945
Spine  -3.27349 4.63868 -1.81579
Spine1  -6.58698 9.06469 -3.09204
HEad  -68.4086 15.1777 22.7386
LeftShoulder1  -1.94126e-019 -3.10601e-018 -2.51263e-017
LeftArm  -7.24249 27.0297 -74.4192
LeftForeArm  28.2428 -26.2192 -4.62592
LeftHand  -0.297917 1.12761 8.05505
RightShoulder  -4.96962e-017 0 -2.36833e-017
RightArm  -43.2466 50.2064 33.9987
RightForeArm  121.835 81.1855 60.2169
RightHand  -2.49991 2.54834 -35.678
LeftUpLeg  -8.81126 -21.603 -1.45973
LeftLeg  3.70397 -5.78382 -0.00275964
LeftFoot  11.4096 0.117013 -1.0098
LeftToes  -36.1744 2.14545e-006 -7.7278e-009
440
root  -11.2815 34.6753 1.41534 -171.538 -43.1968 173.822
RightUpLeg  0.972118 -31.5665 -6.96872
RightLeg  11.8894 -21.0949 -2.96064
RightFoot  -0.699859 -0.00151344 0.534092
RightToes  -23.3539 -0.108582 -0.207948
Spine  -3.22208 4.82938 -2.01124
Spine1  -6.49418 9.40977 -3.47778
HEad  -70.1266 13.9507 22.4722
LeftShoulder1  -1.94126e-019 -3.10601e-018 -2.51263e-017
LeftArm  -9.8676 27.7617 -73.18
LeftForeArm  29.094 -23.0707 -4.16605
LeftHand  -0.300558 1.32362 8.49859
RightShoulder  -4.96962e-017 0 -2.36833e-017
RightArm  -45.3606 51.4976 35.1729
RightForeArm  131.859 80.6708 51.2438
RightHand  -3.26266 1.93983 -48.8942
LeftUpLeg  -8.82852 -21.7588 -1.50909
LeftLeg  3.48213 -6.61434 0.0225047
LeftFoot  11.589 0.138141 -1.19972
LeftToes  -36.8363 2.14545e-006 -7.7278e-009
441
root  -11.2461 34.6688 1.39042 -171.355 -43.891 173.596
RightUpLeg  0.96179 -32.0011 -7.03515
RightLeg  12.2143 -21.3419 -3.11402
RightFoot  -0.912844 -0.0010325 0.628455
RightToes  -23.0519 -0.10851 -0.20806
Spine  -3.15834 4.9702 -2.14805
Spine1  -6.39436 9.70314 -3.75345
HEad  -71.4523 12.6947 22.2565
LeftShoulder1  -1.94126e-019 -3.10601e-018 -2.51263e-017
LeftArm  -12.7925 28.5151 -72.1867
LeftForeArm  31.1448 -18.9555 -3.44201
LeftHand  -0.312206 1.37085 8.93375
RightShoulder  -4.96962e-017 0 -2.36833e-017
RightArm  -47.9685 52.9688 40.5338
RightForeArm  120.114 80.3805 50.7818
RightHand  -2.70957 0.793781 -48.2398
LeftUpLeg  -8.93596 -21.4652 -1.51972
LeftLeg  3.47131 -7.61929 0.0274163
LeftFoot  11.7289 0.162428 -1.4198
LeftToes  -38.3744 2.14545e-006 -7.7278e-009
442
root  -11.2065 34.6629 1.36339 -171.207 -44.3299 173.504
RightUpLeg  0.92492 -32.5507 -7.02576
RightLeg  12.338 -21.2326 -3.14456
RightFoot  -0.943992 -0.000923279 0.643995
RightToes  -23.3387 -0.108427 -0.20826
Spine  -3.0942 4.97026 -2.18878
Spine1  -6.28618 9.73438 -3.83117
HEad  -72.1866 11.7814 21.6241
LeftShoulder1  -1.94126e-019 -3.10601e-018 -2.51263e-017
LeftArm  -15.156 29.48 -71.3807
LeftForeArm  32.3726 -14.2918 -2.55648
LeftHand  -0.339357 1.22488 9.39986
RightShoulder  -4.96962e-017 0 -2.36833e-017
RightArm  -49.4113 54.1944 47.8474
RightForeArm  110.155 81.0318 66.1652
RightHand  -1.11053 -2.21667 -39.4335
LeftUpLeg  -9.11704 -21.1454 -1.42576
LeftLeg  3.52259 -8.4092 0.0227844
LeftFoot  11.7513 0.179387 -1.58152
LeftToes  -39.4247 2.14545e-006 -7.7278e-009
